<svg id="Layer_1" data-name="Layer 1" xmlns="http://www.w3.org/2000/svg" viewBox="0 0 3786.42 3758.26"><defs><style>.cls-1{fill:#fc311d;}.cls-2{fill:#ffb600;}.cls-3{fill:#ff0;}.cls-4{fill:#371a45;}.cls-5{fill:#04aaff;}.cls-6{opacity:0.7;}.cls-7{fill:#fff;}.cls-8{fill:#ed1b24;}.cls-9{opacity:0.35;}.cls-10{fill:none;stroke-linecap:round;stroke-width:6.21px;}.cls-10,.cls-11{stroke:#371a45;stroke-miterlimit:10;}.cls-11{fill:#c1303d;stroke-width:3.65px;}.cls-12{fill:#293856;}.cls-13{fill:#21102b;}.cls-14{opacity:0.6;}.cls-15{fill:#22a7f0;}</style></defs><path class="cls-1" d="M3729.08,2898.67c-92-145.26-273.43-195.35-405.15-111.89s-163.88,268.87-71.84,414.12c73.71,116.33,426.15,355.35,563.59,445.93,22.36,14.73,51.83-2.92,49.36-29.58C3849.59,3450.63,3803,3015.37,3729.08,2898.67Z" transform="translate(-106.79 -120.87)"/><path class="cls-2" d="M3622.19,2882.71c-63.57-100.33-188.86-134.94-279.83-77.29s-113.2,185.71-49.63,286c46.65,73.62,262.09,217.45,373.49,288.82,26.94,17.25,61.73-4.79,57.63-36.51C3706.89,3212.55,3668.84,2956.33,3622.19,2882.71Z" transform="translate(-106.79 -120.87)"/><path class="cls-3" d="M3516.59,2863.87c-39.49-62.33-117.32-83.83-173.84-48s-70.32,115.37-30.83,177.7c25.65,40.48,133.44,115.12,205.86,162.48,27,17.66,62.26-4.68,57.82-36.64C3563.7,3033.68,3542.24,2904.34,3516.59,2863.87Z" transform="translate(-106.79 -120.87)"/><path class="cls-4" d="M3830.43,3683.52a62.53,62.53,0,0,1-35.68-11.26C3613,3546.43,3298,3317.74,3230.05,3199.94c-45-77.92-59.71-167.23-41.48-251.47,18.44-85.23,68.29-155.08,140.38-196.69,147.88-85.36,344.17-23.21,437.54,138.55h0c68,117.79,108.44,504.94,126.5,725.23a62.94,62.94,0,0,1-62.56,68Zm-357-915.4a232.92,232.92,0,0,0-117.1,31c-58.54,33.8-99.12,90.93-114.26,160.89-15.35,70.94-2.77,146.42,35.4,212.56,45.08,78.11,250.12,248.09,548.47,454.69a8,8,0,0,0,12.58-7.26c-29.66-361.68-74.29-624.25-119.37-702.36C3664.28,2822.68,3568,2768.12,3473.39,2768.12Z" transform="translate(-106.79 -120.87)"/><path class="cls-5" d="M3483,2733.82c-23.66,75.56-63.8,123.22-106.67,153.1-84.72,59.28-180.17,49.37-180.17,49.37l-82.26-85.95,100.79-66.54,210.53-139Z" transform="translate(-106.79 -120.87)"/><g class="cls-6"><path class="cls-7" d="M3483,2733.82c-23.66,75.56-63.8,123.22-106.67,153.1a264.6,264.6,0,0,1-59.08,31c5.75-3.35,11.42-7,17.1-10.94a258.06,258.06,0,0,0,67.34-69.16c29-43.46,28.75-100.22.3-144.05l-15.27-23.51,38.5-25.44Z" transform="translate(-106.79 -120.87)"/></g><path class="cls-4" d="M3210,2964.09c-10.21,0-16.23-.56-16.6-.6l-10-1-111.9-116.86,361.64-238.78L3513,2729.74l-3.84,12.28C3444.82,2947.64,3265.56,2964.09,3210,2964.09Zm-1.47-54.49c39.21,1.05,186-6.66,244.42-171.89l-35.65-54.88-260.93,172.29Z" transform="translate(-106.79 -120.87)"/><path class="cls-8" d="M2771,1344.74c-105,118.77-248.41,252.72-427.56,352.42a1252.6,1252.6,0,0,1-156.59,73.78A1871.06,1871.06,0,0,1,2126,1555.82c-45.74-208.34-46.56-384.28-25.44-473.92,7.32-31.59,17.44-52.44,29.27-60.31,47.38-31.24,259.7,37.68,493.75,205.61A1881.59,1881.59,0,0,1,2771,1344.74Z" transform="translate(-106.79 -120.87)"/><g class="cls-6"><path class="cls-7" d="M2702.86,1417.91c5.26-5.75,10.32-11.49,15.38-17.17a2097.41,2097.41,0,0,0-164.38-131c-173.06-124.17-335.45-199.79-440.62-226.46,5-10.39,10.53-17.71,16.55-21.68,47.38-31.24,259.7,37.68,493.75,205.61A1881.59,1881.59,0,0,1,2771,1344.74C2749.9,1368.68,2727.2,1393.15,2702.86,1417.91Z" transform="translate(-106.79 -120.87)"/></g><path class="cls-4" d="M2170.35,1806.69,2161,1780a1911.19,1911.19,0,0,1-61.81-218.27c-58.43-266.11-51.49-518.63,15.48-562.91,68.23-45,303.62,47.51,524.77,206.19a1909.74,1909.74,0,0,1,149.63,119.26l20.51,18.11-18.12,20.5c-181.05,204.93-381.15,350.82-594.75,433.62Zm-6.71-765.89c-8.86,0-15.2,1.25-18.78,3.61-26.58,19.34-56.06,214.72,7.8,505.54a1852.21,1852.21,0,0,0,50.81,184.86c188.37-78.26,366-208.49,528.64-387.66-40.13-34.37-81.92-67.18-124.52-97.75C2394.93,1096.82,2222.93,1040.8,2163.64,1040.8Z" transform="translate(-106.79 -120.87)"/><path class="cls-7" d="M3425.26,2644.79S3393.6,2724,3307.38,2782.1a390.41,390.41,0,0,1-52.79,29.74c-74.46,34.73-140.65,38.5-140.65,38.5s-133.81-59.56-206.91-111.6q-47.9-34.24-97.37-76.37c-29.54-25.17-59.42-52.52-89.3-81.64q-41.54-40.52-83.08-85.68c-88.27-96.28-175.73-207.87-257.44-331.63-85-128.69-147.83-263-193-392.48a1252.6,1252.6,0,0,0,156.59-73.78c179.15-99.7,322.6-233.65,427.56-352.42,110.09,97.1,218.46,215.6,310.64,355.22,81.71,123.7,150.15,248,203.9,366.91q25.23,55.9,46.22,110.16c15,38.9,28.44,77.06,40,114.19,12.85,41.16,23.52,81.16,31.93,119.45C3423,2498.4,3425.26,2644.79,3425.26,2644.79Z" transform="translate(-106.79 -120.87)"/><path class="cls-4" d="M3108.87,2878l-6-2.69c-5.57-2.48-137.15-61.29-211.66-114.34-33-23.6-66.4-49.78-99.26-77.84-30-25.56-60.46-53.45-90.63-82.88-28.14-27.44-56.45-56.63-84.13-86.76C2525,2413.11,2437.48,2300.39,2357,2178.48c-80.07-121.27-146-255.35-196-398.52l-8.71-25,24.65-9.55c205.37-79.6,398.33-220.52,573.53-418.83l18.09-20.49,20.5,18.08c122.77,108.27,228.88,229.62,315.39,360.68,80.74,122.22,150,246.94,206,370.71,17.09,37.81,32.84,75.34,46.82,111.54,15.19,39.21,28.86,78.23,40.63,115.94,13,41.82,24,82.77,32.55,121.73,19.62,89.38,22,233.51,22.11,239.6l.09,5.47-2,5.09c-1.42,3.55-35.79,87.68-128,149.81-97.85,66-202.77,72.63-207.18,72.89ZM2221.48,1786.56c47.31,129.66,108.19,251.26,181.17,361.78,78.89,119.5,164.61,229.92,254.78,328.2,27,29.37,54.6,57.84,82,84.6,29.31,28.58,58.9,55.64,87.95,80.42,31.68,27.05,63.82,52.26,95.52,74.91,61.06,43.48,168.45,93.55,195.71,106,22.42-2.48,101.17-14.31,173.46-63,66.79-45,97.79-103.43,105.65-120.12-.66-28-4.43-148.55-20.71-222.76-8.25-37.42-18.8-76.86-31.36-117.19-11.4-36.54-24.66-74.39-39.42-112.49-13.62-35.27-29-71.85-45.64-108.74C3205.88,1957,3138,1834.84,3058.84,1715s-175.11-231.26-285.69-331.69C2604,1569.74,2418.64,1705.23,2221.48,1786.56Z" transform="translate(-106.79 -120.87)"/><path class="cls-4" d="M2670.71,2533.27c-15.65,0-25.07-.82-26.79-1l5.24-54.45c1.88.18,195.62,16.11,391.05-130.23,175.47-131.39,227.59-280,228.1-281.51l51.84,17.46c-2.25,6.7-57.19,165.59-247.15,307.83C2901.84,2519.54,2734.51,2533.27,2670.71,2533.27Z" transform="translate(-106.79 -120.87)"/><g class="cls-9"><path class="cls-4" d="M3376.37,2886.92c-84.72,59.28-180.17,49.37-180.17,49.37l-82.26-85.95s-133.81-59.56-206.91-111.6q-47.9-34.24-97.37-76.37c-29.54-25.17-59.42-52.52-89.3-81.64q-41.54-40.52-83.08-85.68c-88.27-96.28-175.73-207.87-257.44-331.63-85-128.69-147.83-263-193-392.48A1871.06,1871.06,0,0,1,2126,1555.82c-45.74-208.34-46.56-384.28-25.44-473.92,43.9,146.6,468.33,827.61,717.08,1190.79,157.75,230.3,271.45,419.83,397.13,511.11q20.61,14.88,39.86,28A1403.21,1403.21,0,0,0,3376.37,2886.92Z" transform="translate(-106.79 -120.87)"/></g><path class="cls-7" d="M2661.55,3809.77c-114.67,81-363.63,71.05-324.45-262.84,0,0-240-28-436.25-122.19-97.5-46.83-184.21-110-225.3-194.26l521.78-780.59s132,311.05,243.84,473.38c63.93,92.78,157.54,177.09,238.36,231.79a644.1,644.1,0,0,0,62.36,37.68C2878.57,3264.19,2817.17,3699.82,2661.55,3809.77Z" transform="translate(-106.79 -120.87)"/><g class="cls-9"><path class="cls-4" d="M2720.28,3747.48c-17.57,25.78-37.26,47.11-58.73,62.29-114.67,81-363.63,71.05-324.45-262.84,0,0-239.94-28-436.18-122.19h-.07c-19.49-9.36-38.56-19.35-56.89-30.08q-5.13-3-10.25-6.16a543.57,543.57,0,0,1-73.44-52.58c-1.78-1.57-3.56-3.08-5.33-4.65-7.73-6.84-15.18-13.88-22.23-21.19-2.12-2.19-4.24-4.38-6.29-6.64-4.17-4.51-8.2-9-12-13.67-1.71-2.05-3.42-4.17-5.13-6.29-3.9-4.93-7.66-9.92-11.21-15.05-1.65-2.32-3.22-4.65-4.72-7-1.78-2.6-3.42-5.2-5.06-7.86-1.51-2.47-3-5-4.45-7.59-1.09-1.85-2.12-3.7-3.14-5.61-.75-1.3-1.44-2.67-2.12-4-1.1-2-2-3.9-3-5.89l521.78-780.59a.54.54,0,0,0,.07.21.25.25,0,0,1,.07.2c.14.28.28.62.55,1.17,1.3,3.07,4.51,10.59,9.37,21.67,32.89,75.08,140.37,314.54,233.78,450.13,63.93,92.78,157.54,177.09,238.36,231.79-89.35,103.36-209.13,185.61-347.23,234-49.88,17.48-39.77,90.66,13,94.26,118.37,8.08,203.67-5.2,203.67-5.2C2388.93,3758.49,2601.51,3815,2720.28,3747.48Z" transform="translate(-106.79 -120.87)"/></g><path class="cls-4" d="M2525.06,3879.13c-38.31,0-76.95-8.67-111.19-29-56.76-33.75-119.68-109.55-106.52-279.58-112.94-16.61-542.34-94.32-656.4-328.08a27.35,27.35,0,0,1,49.16-24c115.8,237.34,635,300.72,640.19,301.33l27.18,3.19-3.19,27.17c-14.86,126.49,11.95,213.95,77.54,252.94,64.1,38.12,152.92,20.36,204-15.69,96.65-68.28,153.12-278.76,143.35-425-5-75.15-26.86-128.16-59.91-145.43-89.48-46.77-224.84-153.79-310.58-278.24-112.11-162.74-241-465.4-246.47-478.21a27.35,27.35,0,0,1,50.36-21.36c1.31,3.08,132.2,310.39,241.16,468.54,80.45,116.77,207.18,217,290.87,260.79,51.81,27.07,82.64,92.87,89.15,190.26,11,164.06-53.27,393.39-166.37,473.29C2637.56,3860.19,2581.67,3879.12,2525.06,3879.13Z" transform="translate(-106.79 -120.87)"/><path class="cls-4" d="M2158.44,3533.76a20.52,20.52,0,0,1-3.81-40.67c165.95-31.55,432.45-152.45,486.47-356.22a20.51,20.51,0,1,1,39.66,10.51c-63.48,239.43-366.9,357.2-518.47,386A20.24,20.24,0,0,1,2158.44,3533.76Z" transform="translate(-106.79 -120.87)"/><path class="cls-4" d="M2336.34,3524.51l59-3.18c19.77-1.43,39.57-2.8,59-6.16s38.53-8,56.57-15.59a150.14,150.14,0,0,0,49.76-32.56l.05-.05a3,3,0,0,1,4.91,3.36c-8.71,20-24.22,37.48-42.27,50.76s-38.55,23.21-59.49,30.47a299.59,299.59,0,0,1-64.36,14.85,278.31,278.31,0,0,1-32.76,2,205.39,205.39,0,0,1-33.31-2.27,20.93,20.93,0,0,1,2.08-41.58Z" transform="translate(-106.79 -120.87)"/><path class="cls-10" d="M2394.28,1712.44" transform="translate(-106.79 -120.87)"/><path class="cls-11" d="M2665.53,1853.37" transform="translate(-106.79 -120.87)"/><path class="cls-7" d="M1229.66,2932.7c-57.3,46.16-113.5,81.92-157,101.54C706.79,3199.3,519.36,2872.12,555,2705.08c48.14-225.51,273.71-130.95,273.71-130.95,82.26-8.54,152.48-49.43,198.57-133.19,56.48-102.43,76.85-268.93,39-518.85q-9.33-61.63-23.45-130.26l70.43,101.54,364.86,526.1C1564,2586.72,1392.4,2801.62,1229.66,2932.7Z" transform="translate(-106.79 -120.87)"/><g class="cls-9"><path class="cls-4" d="M1501.05,2516c0,3.14-.07,6.29-.2,9.5,0,.48-.07,1-.07,1.37-.14,2.8-.27,5.67-.55,8.54,0,.48-.07.89-.07,1.37-.27,3-.54,6-1,9-.28,2.6-.69,5.26-1.1,7.86a40.06,40.06,0,0,1-.61,4c-1.58,9.43-3.63,18.8-6.09,28.24q-1.34,5-2.87,10v.13c-.89,2.94-1.85,6-2.8,9-.21.62-.41,1.23-.62,1.92q-1.55,4.61-3.28,9.23c-1.16,3.41-2.46,6.77-3.83,10.12-.62,1.64-1.3,3.28-2,4.85-1.37,3.49-2.88,6.91-4.38,10.33-.2.47-.41,1-.62,1.36-.88,2.12-1.91,4.24-2.87,6.36-1.64,3.63-3.42,7.25-5.19,10.87-1,2.19-2.12,4.38-3.29,6.5-3.62,7.11-7.52,14.22-11.55,21.33-1.64,2.88-3.35,5.75-5.06,8.62a656.84,656.84,0,0,1-37.75,56.41c-1.64,2.26-3.35,4.44-5.06,6.7s-3.35,4.45-5.12,6.7c-3.42,4.38-6.91,8.82-10.47,13.2-3.41,4.17-6.83,8.34-10.32,12.51-9.23,11-18.87,21.88-28.72,32.55-1.91,2.05-3.83,4.17-5.81,6.22-21.88,23.32-44.86,45.54-68.17,66.33-2.94,2.6-6,5.19-8.89,7.86-.69.55-1.3,1.09-1.92,1.64q-6.25,5.45-12.51,10.67-9.33,7.89-18.67,15.38c-57.3,46.16-113.5,81.92-157,101.54-299.42,135.05-479.32-59.49-515.29-226.19,76.72,125.61,237.34,220,470.3,114.94l1.2-.54c81.51-37.08,117.76-132.79,83.7-215.6-37-90-64.64-180.64-85.31-265.91,56.48-102.43,76.85-268.93,39-518.85l47-28.72,342,493.21,22.84,32.89C1493.94,2450.3,1501.05,2482.71,1501.05,2516Z" transform="translate(-106.79 -120.87)"/></g><path class="cls-4" d="M881.54,3106.59c-81.06,0-155.18-25.32-217.6-75.64-114.39-92.23-155.28-239.69-135.68-331.61,15.47-72.54,49.68-123.1,101.66-150.29,80.19-41.93,175.65-12.52,202.29-2.84,64-8.19,115.19-38.06,152.31-88.83,85.74-117.29,96.66-345.52,31.56-660a27.35,27.35,0,1,1,53.57-11.09c69.29,334.78,55.5,571.44-41,703.4-47.85,65.45-114.18,103-197.14,111.7l-7,.73-6.46-2.71c-.88-.36-93.85-38.13-163.06-1.74-36.74,19.31-61.4,57.37-73.29,113.11-16.43,77,22.66,201.94,116.52,277.62,67,54,184.46,101.55,363.15,20.93,125.94-56.83,337.59-239,396.2-406.61,22.53-64.42,21.24-121.87-3.83-170.73a27.35,27.35,0,0,1,48.67-25c32.18,62.71,34.47,134.63,6.8,213.76-65.9,188.45-293.33,378.84-425.34,438.41C1013.73,3090.83,945.48,3106.59,881.54,3106.59Z" transform="translate(-106.79 -120.87)"/><path class="cls-7" d="M2425.37,3291.41c-195,89.44-435.35,109.13-681.17,17.23-439.66-164.38-609.37-626.68-674.81-959-41.16-208.82-41.16-366.29-41.16-366.29l979.22-598.57c52.45,177.71,124.24,300.17,204.72,394.26,154.19,180.58,339.91,257,480.69,420,49.17,56.95,92.86,124.44,127.73,210.67,1.3,3.14,2.6,6.36,3.83,9.57a653.78,653.78,0,0,1,26.8,85C2930.47,2831.09,2735.12,3149.25,2425.37,3291.41Z" transform="translate(-106.79 -120.87)"/><g class="cls-9"><path class="cls-4" d="M1744.2,3308.64c-316-118.16-492.59-390.23-591.19-657.31,103.94,235.08,274.26,459.56,553.38,563.91,655.6,245.13,1272.63-303.6,1093.21-853q13.13,27.18,24.82,57.1C3044,2980.5,2414.23,3559.17,1744.2,3308.64Z" transform="translate(-106.79 -120.87)"/></g><path class="cls-4" d="M2069.46,3396c-111.9,0-225.12-20.69-334.81-61.7-301.08-112.58-523.46-382.58-643.12-780.81-89.63-298.28-90.65-559.16-90.65-570.12V1968l1022.75-625.13,10.09,34.2c101.58,344.55,277.52,475.55,447.66,602.24,145.29,108.18,282.52,210.36,368.48,430,99.33,253.84,37.87,528-164.4,733.36-112.6,114.32-257.12,194.21-417.95,231A887.17,887.17,0,0,1,2069.46,3396ZM1055.86,1998.5c1.66,60,12.89,289.7,88.45,540.51,79.93,265.34,250.56,609.8,609.5,744,386.18,144.41,714.33,2.37,892.67-178.7,186.69-189.54,243.67-441.89,152.44-675-80.25-205.09-211.38-302.73-350.21-406.1-171.68-127.83-349-259.89-457-596.67Z" transform="translate(-106.79 -120.87)"/><g class="cls-9"><path class="cls-4" d="M2212.17,1779.05c-199.25,417-684.38,670.43-1142.78,570.6-41.16-208.82-41.16-366.29-41.16-366.29l979.22-598.57C2059.9,1562.5,2131.69,1685,2212.17,1779.05Z" transform="translate(-106.79 -120.87)"/></g><g class="cls-9"><path class="cls-4" d="M2017.49,1786.21c-144.34-10.45-246.24-188.61-217.07-387.43,87.1,210.43,312.71-130.28,329.88-228.75C2499.64,1270.24,2282.18,1811.1,2017.49,1786.21Z" transform="translate(-106.79 -120.87)"/></g><g class="cls-6"><path class="cls-7" d="M1708.49,1214.31c-58,193.57-279,131.07-257.09-44.71C1491.57,949.47,1753.26,1018.92,1708.49,1214.31Z" transform="translate(-106.79 -120.87)"/></g><path class="cls-7" d="M302.49,1762.76C1112,2905.92,2739.34,1838.6,2082.74,660.17,1281.84-529.67-399.24,575.17,302.49,1762.76Z" transform="translate(-106.79 -120.87)"/><path class="cls-7" d="M302.49,1762.76C1112,2905.92,2739.34,1838.6,2082.74,660.17,1281.84-529.67-399.24,575.17,302.49,1762.76Z" transform="translate(-106.79 -120.87)"/><path class="cls-7" d="M302.49,1762.76C1112,2905.92,2739.34,1838.6,2082.74,660.17,1281.84-529.67-399.24,575.17,302.49,1762.76Z" transform="translate(-106.79 -120.87)"/><path class="cls-4" d="M1174.17,2271.56a999.66,999.66,0,0,1-165.68-13.76c-282.17-47.39-532-214.57-722.37-483.44l-.9-1.39c-166.47-281.72-212-578.72-131.8-858.9,71.61-250,238.31-468,469.39-613.9,230.61-145.56,497.41-201,751.34-156,286.31,50.72,537.09,225.27,725.24,504.78l.88,1.44c156,280,195.27,573.28,113.61,848.27-73,246-238.27,460.17-465.27,603.2C1571.67,2213.38,1372.47,2271.56,1174.17,2271.56ZM319.34,1751.84c407.3,574.55,1000.52,572.78,1407.88,316.09,398-250.77,673.52-794.93,338.41-1397.25C1664.84,75.93,1048,79.25,644.24,334.11,236.55,591.45-38.92,1144.78,319.34,1751.84Z" transform="translate(-106.79 -120.87)"/><g class="cls-9"><path class="cls-12" d="M302.49,1762.73c682,999.55,2154.42,323.34,1900.31-811.58-39.65,377.2-166.92,402.28-348,607.11-552.44,668.82-1533,287.19-1712-454.48C120.92,1338.53,179.88,1569.9,302.49,1762.73Z" transform="translate(-106.79 -120.87)"/></g><path class="cls-12" d="M1174.17,2279.65a1007.21,1007.21,0,0,1-167-13.88C722.81,2218,471.2,2049.7,279.53,1779l-1.27-2C110.64,1493.4,64.79,1194.21,145.66,911.84c72.15-251.91,240.07-471.56,472.84-618.5C850.81,146.7,1119.67,90.89,1375.55,136.23c288.53,51.11,541.14,226.85,730.54,508.23l1.24,2c157.07,281.9,196.59,577.38,114.3,854.5-73.59,247.83-240.05,463.66-468.71,607.74C1574.67,2221,1374,2279.65,1174.17,2279.65Zm-848-532.2c404.23,569.92,992.7,568.26,1396.78,313.64,394.82-248.77,668.18-788.55,335.81-1386.19C1661,85,1049,88.15,648.55,340.94,244.13,596.22-29.1,1145.16,326.14,1747.45Z" transform="translate(-106.79 -120.87)"/><path class="cls-4" d="M1174.17,2279.65a1007.21,1007.21,0,0,1-167-13.88C722.81,2218,471.2,2049.7,279.53,1779l-1.27-2C110.64,1493.4,64.79,1194.21,145.66,911.84c72.15-251.91,240.07-471.56,472.84-618.5C850.81,146.7,1119.67,90.89,1375.55,136.23c288.53,51.11,541.14,226.85,730.54,508.23l1.24,2c157.07,281.9,196.59,577.38,114.3,854.5-73.59,247.83-240.05,463.66-468.71,607.74C1574.67,2221,1374,2279.65,1174.17,2279.65Zm-848-532.2c404.23,569.92,992.7,568.26,1396.78,313.64,394.82-248.77,668.18-788.55,335.81-1386.19C1661,85,1049,88.15,648.55,340.94,244.13,596.22-29.1,1145.16,326.14,1747.45Z" transform="translate(-106.79 -120.87)"/><path class="cls-4" d="M474.28,1968.87c1073,601,1944.14-654.95,1124.8-1353.6C633.79-111.52-404.57,1078.51,474.28,1968.87Z" transform="translate(-106.79 -120.87)"/><path class="cls-13" d="M174.82,1247.09c20.4,1111.37,1611.74,1168.15,1759.85,149C1438.94,2005.74,484.78,1778.12,174.82,1247.09Z" transform="translate(-106.79 -120.87)"/><path class="cls-4" d="M1088.66,2254.5a867.8,867.8,0,0,1-201.15-23.44c-237.4-56.52-447.78-213-608.39-452.63l-.12-.18C143.52,1572.81,86.5,1305.47,122.57,1044.8c38.2-276,174.68-514.82,384.31-672.45l1.91-1.44,2.13-1.1C762.74,240.35,1071.3,225,1357.48,327.73c285.19,102.36,512.48,309,623.59,567,101.15,252.49,103.06,510.43,5.79,746.6-88.17,214.07-251.39,392.5-459.59,502.43C1388.58,2217,1237.82,2254.5,1088.66,2254.5ZM326,1747.2c353.51,527.24,853.91,516.3,1175,346.75,369.1-194.89,634.67-662,428.11-1177.67-104.69-243-320.06-438.46-590.63-535.57-270.75-97.18-562.07-83.28-799.68,38.07C104.09,747.42,77.6,1370.52,326,1747.2Z" transform="translate(-106.79 -120.87)"/><path class="cls-4" d="M1036.5,2155.17c-188.87,0-384.62-54.57-576-161.74l-3.48-2-2.79-2.84c-211.2-214-328.48-461-339.15-714.3-9.55-226.77,67.36-445.6,216.57-616.19C477.49,491.43,677.9,387.79,896,366.31c242.57-23.9,491.52,54.42,720,226.48l1.34,1.06c191.25,163.09,304.9,366.88,328.66,589.36,21.51,201.43-33,407.59-153.39,580.52a910,910,0,0,1-547.51,368.4A945,945,0,0,1,1036.5,2155.17Zm-545-208.91c550.27,306.29,1026.57,113.18,1254.9-214.69,207.29-297.68,236.59-751.41-165-1094.33-482-362.44-953.7-232.13-1207.41,58C121.74,983.66,51.33,1497.81,491.52,1946.26Z" transform="translate(-106.79 -120.87)"/><path class="cls-7" d="M2377.42,1388.52c-55.87,490.75-552.42,476.06-546.31,2.18C1870.79,874.21,2401.57,889.84,2377.42,1388.52Z" transform="translate(-106.79 -120.87)"/><path class="cls-4" d="M2083.22,1779.5c-4.94,0-9.84-.16-14.73-.47-134.55-8.5-268.83-132-265.52-388.69l.08-1.79c21.5-279.94,186.18-416.88,337.58-407.32,136.7,8.56,277.91,140.09,264.9,408.66l-.15,1.82C2374.76,1660.72,2219.85,1779.5,2083.22,1779.5Zm-224-387.54c-2.53,219.13,105,324.08,212.8,330.9,114.15,7.1,249.5-95.07,277.31-336.61,10.81-229.85-102.36-342-212.23-348.84C2013.31,1029.77,1878.22,1149,1859.24,1392Zm518.18-3.44h0Z" transform="translate(-106.79 -120.87)"/><path class="cls-7" d="M2397.5,1415.12c-45.69,397.64-417.87,392.92-413,9.64C2015.06,1001.37,2419.52,1006.94,2397.5,1415.12Z" transform="translate(-106.79 -120.87)"/><path class="cls-4" d="M2170.86,1740.92c-3.65,0-7.27-.11-10.88-.34-103.27-6.57-206.27-106.89-203.61-316.18l.07-1.67c16.94-234.75,146.73-349.88,266.22-342.42,106.12,6.68,214.89,114.79,203,336.32l-.15,1.7C2399.75,1642,2277.66,1740.92,2170.86,1740.92Zm-158.21-315c-2,171.78,74.34,253.58,150.9,258.46,83.27,5.19,183.31-77.46,205.89-271.66,9.6-182.7-71.13-271.27-150.32-276.27C2127.41,1130.63,2027.17,1228.28,2012.65,1426Zm384.85-10.83h0Z" transform="translate(-106.79 -120.87)"/><g class="cls-14"><path class="cls-7" d="M1618,1499.18c-23.44,76.13-124.63,55-106.83-30.11C1534.65,1393,1635.84,1414.11,1618,1499.18Z" transform="translate(-106.79 -120.87)"/></g><g class="cls-14"><path class="cls-7" d="M327.81,1290.7C177.45,582.59,912.88,459.17,1143.3,601.19,670.82,653.5,473.22,954.84,327.81,1290.7Z" transform="translate(-106.79 -120.87)"/></g><g class="cls-9"><path class="cls-4" d="M1968.28,1515.18c-9.44-55.51-3.69-113.8,13.77-167.61,81.5,264.4,345.55,135.39,400-58.94C2457.68,1681.52,2063.43,1882.79,1968.28,1515.18Z" transform="translate(-106.79 -120.87)"/></g><path class="cls-4" d="M842,2550.27a167,167,0,0,1,14.62,9.48c4.26,3.15,8.54,6.31,12.42,9.77,4.05,3.32,7.85,6.85,11.56,10.46a150.87,150.87,0,0,1,10.81,11.1c13.78,15.28,26.22,31.8,35.9,49.8,20.37,35.49,31.89,75.23,36.09,114.71.68,9.91,1.8,19.79,2,29.63,0,9.85-.13,19.68-.38,29.47-1.34,20.64-5.58,41.56-13.81,60.85-16.13,38.79-50.37,69.05-89.62,76a2.33,2.33,0,0,1-2-4l.23-.22c26.9-26.27,46.14-54.46,55.84-85.16,4.76-15.45,6.32-31.56,5.76-47.94-.78-8.72-1.42-17.41-2-26.07-.9-8.63-2.6-17.1-3.82-25.61s-4-16.65-5.81-25c-2-8.27-5.18-16.15-7.64-24.22-3.17-7.79-6.4-15.56-10-23.12-4-7.32-7.28-15-12-21.93a236.65,236.65,0,0,0-29.75-39.54c-2.79-3-5.55-6-8.55-8.81s-5.85-5.7-9-8.26c-3-2.73-6.13-5.16-9.22-7.66-2.87-2.23-6.71-4.92-8.41-6l-1.9-1.25A27.31,27.31,0,0,1,842,2550.27Z" transform="translate(-106.79 -120.87)"/><path class="cls-7" d="M757.18,2556.43s133.67,32.7,183.57,160.49c0,0,51.84-3.52,61.68-62.28,11.48-68.58-43.53-168.14-141.35-175.13C786.87,2474.2,757.18,2556.43,757.18,2556.43Z" transform="translate(-106.79 -120.87)"/><g class="cls-9"><path class="cls-4" d="M1002.45,2654.61c-9.85,58.81-61.68,62.3-61.68,62.3-49.91-127.8-183.59-160.49-183.59-160.49a149.09,149.09,0,0,1,21-36.58c39.19,8.56,104.93,30.88,154.46,88.54,18.87,22,54.64,17.39,65.6-9.41l.39-1C1004,2617.49,1005.39,2637,1002.45,2654.61Z" transform="translate(-106.79 -120.87)"/></g><path class="cls-4" d="M925.1,2741.6l-6.29-16.11c-44.66-114.35-166.07-145.88-167.29-146.19l-25.3-6.32,8.8-24.55c1.45-4,36.69-99,127.75-92.42,48.48,3.47,92.44,27.3,123.77,67.12s46.42,91.82,39.13,135.41c-10.22,61-59,80.23-83.32,81.89ZM790.59,2542.75c42,16.43,120.88,57.64,163.57,146,9.85-5.13,21.31-15.81,25-38,5.1-30.44-6.55-69.09-29.68-98.48s-55-46.75-90.1-49.26C824.87,2500.6,802.69,2524.07,790.59,2542.75Z" transform="translate(-106.79 -120.87)"/><path class="cls-7" d="M2473.78,2074.85l-504.89,147.28c-176.35-218.67-389.41-719-389.41-719s-59-2.12-125.61-32.21c-49.78-22.5-103.79-60.65-140.58-125.2a312.62,312.62,0,0,1-29.27-69.81c-73.91-256.62,226.81-447.46,481.65-372.31C2166.29,1021.84,2125.74,1601.88,2473.78,2074.85Z" transform="translate(-106.79 -120.87)"/><g class="cls-9"><path class="cls-4" d="M1719.52,1425.88c-73.78,34-179.56,43.69-265.65,45.06-49.78-22.5-103.79-60.65-140.58-125.2,141,7,498.26,5.2,542.84-186.6C1856.13,1159.14,1943.79,1322.56,1719.52,1425.88Z" transform="translate(-106.79 -120.87)"/></g><path class="cls-4" d="M2466.44,2080.28c-19.79-18.51-38.67-38.1-55.27-59.32-17.45-20.7-32.48-43-47.4-65.52a1327.17,1327.17,0,0,1-77-141.71c-44.31-97.81-81.15-198.15-117.7-297.67s-70.92-199.34-115.26-293.11c-22.22-46.77-47.11-91.92-76.82-132.9-29.53-41.1-64.66-77.3-105.26-105.49l-15.34-10.38c-5-3.63-10.71-6.14-16-9.28l-16.18-9-16.94-7.56c-5.69-2.43-11.24-5.17-17-7.39l-17.63-6c-5.9-1.91-11.7-4.27-17.66-5.83l-17.89-4.67a395.6,395.6,0,0,0-147.52-5.35A402.14,402.14,0,0,0,1449.74,967c-42.93,24.27-80.55,57.48-107.61,97.2a249.54,249.54,0,0,0-31.38,64,226.67,226.67,0,0,0-10.52,69.91,268.21,268.21,0,0,0,10.26,70.75,288.09,288.09,0,0,0,28.41,66.57c24.41,41.37,60.18,75.29,102.82,98.75a342.55,342.55,0,0,0,67.67,28.21c11.81,3.49,23.81,6.42,35.88,8.72,6,1.16,12.09,2.15,18.1,2.95,5.81.81,12.49,1.47,17.12,1.71l17.41.92,6.77,15.7c26.76,62.09,55.19,124.15,84.21,185.56s59.08,122.49,90.48,182.67c15.47,30.23,31.71,60,48,89.73,8.34,14.73,17,29.31,25.57,43.88s17.91,28.67,26.54,43.18c35,58,69.68,114.4,96.5,179l.06.15a9.45,9.45,0,0,1-14.25,11.3c-14.5-10.44-27.54-22.37-40.4-34.56-12.34-12.51-23.49-25.88-34.47-39.46l-8.08-10.29-7.46-10.63c-4.94-7.12-10-14.16-14.73-21.42s-9.68-14.38-14.26-21.73c-4.43-7.41-8.89-14.8-13.14-22.32-17.51-29.81-33.18-60.5-49.91-90.57-16.23-30.32-32.91-60.41-48.49-91-31.77-60.91-62-122.48-91.38-184.48s-57.8-124.2-85.1-187.54l24.19,16.62c-8.6-.44-15.09-1.2-22.39-2.16-7.11-1-14.12-2.09-21.08-3.43q-20.89-4-41.26-10a396.9,396.9,0,0,1-78.62-32.81c-50.15-27.49-94-68.79-123.4-118.8a343.21,343.21,0,0,1-33.83-79.11,323.14,323.14,0,0,1-12.42-85.89,281.63,281.63,0,0,1,13.06-86.5,304.35,304.35,0,0,1,38.23-78.13c32.59-47.84,76.69-86.24,125.8-114.07A456.6,456.6,0,0,1,1581.49,865a450.39,450.39,0,0,1,168,6.17l20.53,5.36c6.84,1.81,13.36,4.4,20,6.57l19.94,6.84c6.56,2.52,12.93,5.6,19.4,8.39s12.92,5.66,19.29,8.66l18.54,10.26c6.09,3.57,12.55,6.54,18.31,10.63l17.55,11.85c46.43,32.24,85.93,73.3,118.15,118.13,32.46,44.8,58.81,92.83,82,141.63,46.19,97.83,80.82,198.64,117.23,297.84,18.18,49.62,36.18,99.16,56.14,147.73,19.53,48.75,41.33,96.39,63.53,143.64,22.6,47,45.7,93.68,69.95,139.81,12.41,22.88,24.12,46.24,36.22,69.49,11.51,23.67,24.32,46.55,34.78,71.48l.19.45a9.26,9.26,0,0,1-14.87,10.36Z" transform="translate(-106.79 -120.87)"/><path class="cls-4" d="M1869.75,1092.6c18.72,20.17,19.63,44.75,15.9,66.57-3.8,22.09-13.59,42.13-25.05,60-11.71,17.74-23.62,34.9-37.06,50.57a107.31,107.31,0,0,1-12.31,13c-2.26,2.13-4.55,4-6.84,5.79s-4.59,3.6-6.9,5.2a226.94,226.94,0,0,1-28,16.88c-37.72,19-76.4,30.53-115.64,39.12A642.29,642.29,0,0,1,1534.48,1364c-40.23.88-81-1.93-121.63-12.06a274.67,274.67,0,0,1-59.85-22.2c-19.29-10.13-38-23.32-53.37-40.69-15.57-17.11-27-38.33-33.64-60.37-6.41-22.14-8.06-44.79-6.77-66.42a286.58,286.58,0,0,1,3.92-31.87c2-10.35,3.16-20.85,5.49-31a82,82,0,0,1,12.12-28.54,55.1,55.1,0,0,1,27.31-21.23,13,13,0,0,1,16.45,6.79l.24.54c5.79,12.8,6.32,22.8,5.89,32.23a104.13,104.13,0,0,1-5.85,26.17c-3,8.28-6.17,16.49-7.8,25a212.87,212.87,0,0,0-3.17,25.26c-1,16.65.39,32.83,4.63,47.63a102.47,102.47,0,0,0,22,39.41c20.39,22.94,51.92,37.88,85.78,46.29,34,8.53,70.52,11.26,107,10.41a588.14,588.14,0,0,0,109.12-13c35.71-7.72,71.21-18.63,102.11-34.28a172.52,172.52,0,0,0,21.29-12.77c1.64-1.12,3.19-2.27,4.6-3.45a50.22,50.22,0,0,0,4.15-3.51,35,35,0,0,0,3.57-3.49,51,51,0,0,0,3.84-4.44c11.54-13.51,21.9-27.79,29.64-43.15s13-31,19-46.08c5.25-15.31,10.87-29.93,21.7-47.51l2.13-3.47a9.73,9.73,0,0,1,13.38-3.18A10,10,0,0,1,1869.75,1092.6Z" transform="translate(-106.79 -120.87)"/><path class="cls-7" d="M1273.31,1216.19s209.88-17.27,243.56,46.57c40.75,77.25-27.73,117-94.66,131-64.82,13.48-112.33,20.9-145-29.47C1232.57,1295.51,1273.31,1216.19,1273.31,1216.19Z" transform="translate(-106.79 -120.87)"/><g class="cls-9"><path class="cls-4" d="M1422.21,1393.74c-64.82,13.47-112.34,20.86-145-29.47-24.89-38.36-23.18-80-16.83-109.33a124.44,124.44,0,0,0,16.83,39c32.68,50.33,80.2,42.94,145,29.47,39.73-8.27,80-25.64,97.65-54.56C1554,1342.12,1487.38,1380.14,1422.21,1393.74Z" transform="translate(-106.79 -120.87)"/></g><path class="cls-4" d="M1352.28,1427.19c-35.7,0-69.54-11.09-94.85-50.1-51.46-79.3-7-167.93-5.08-171.66l6-11.64,13.05-1.07c37.63-3.1,227.37-14.82,266.33,59,21.74,41.21,15.71,72.36,6.82,91.22-22.43,47.62-83.26,66.68-117.52,73.8C1402.69,1421.85,1377,1427.19,1352.28,1427.19Zm-62.81-188.51c-7.83,22-19.85,70.63,7.49,112.75,23,35.49,52.85,33.29,120.45,19.23,43-8.94,74.63-26.8,84.49-47.75,6.37-13.52,4.45-29.6-5.86-49.16C1479.1,1241.65,1367.89,1234.11,1289.47,1238.68Z" transform="translate(-106.79 -120.87)"/><path class="cls-7" d="M2796.55,2424.53s187.11,282.26,327,421.91c101.76,101.57,248.19,181.13,345.48,211.36,147.6,45.86,167.38,485.08,34.55,620.86-97.94,100.13-344.7,134.7-367.57-200.51,0,0-573.22,5.54-741.75-221.86h0a141.81,141.81,0,0,1-14.62-170.6Z" transform="translate(-106.79 -120.87)"/><g class="cls-9"><path class="cls-4" d="M3571.78,3543.45c-14.63,55.65-37.27,103.66-68.17,135.25-97.92,100.1-344.69,134.63-367.6-200.55,0,0-573.2,5.53-741.75-221.89a141.52,141.52,0,0,1-36.44-95v-.79c.22-40.23,49-60.48,78.69-33.32,4,3.65,7.77,7.38,11.15,11.13,321.31,358.64,889.76,188,889.76,188C3146,3655.54,3490.77,3703,3556.94,3560.75,3560.08,3554,3567.13,3549.67,3571.78,3543.45Z" transform="translate(-106.79 -120.87)"/></g><path class="cls-4" d="M3339.21,3775.14a205.86,205.86,0,0,1-71.49-12.44c-62.38-23-138.66-86.49-156.77-257.34-115.45-1.8-580.79-22.2-737.72-231.54-6.72-7.38-32.37-37.87-39.63-80.11a27.35,27.35,0,0,1,53.91-9.27c5.15,29.95,26.3,52.71,26.51,52.92l2.23,2.65c158.26,213.54,714.05,210.84,719.53,210.79l25.78-.24,1.76,25.73c8.68,127.26,51.33,208.55,123.32,235.09,70.77,26.1,152.89-6.33,197.41-51.84,81.84-83.67,99-299.71,63.22-441.27-18.74-74.16-50.21-123.13-86.33-134.35-96.39-30-248.7-110.68-355.9-217.33-185.61-157.62-302.83-420.29-307.73-431.41a27.35,27.35,0,0,1,50-22.09c1.16,2.62,117.56,263.21,293.89,412.47l1.65,1.52c100.68,100.49,243.85,176.5,334.27,204.6,56.35,17.51,98.93,77.39,123.15,173.18,40.16,158.9,18.75,394.89-77.16,492.93C3480.63,3741.26,3410.58,3775.13,3339.21,3775.14Z" transform="translate(-106.79 -120.87)"/><path class="cls-4" d="M1668.2,1718.89a20.52,20.52,0,0,1-1.82-41c125.77-11.37,459.18-73.59,491.16-222.85a20.52,20.52,0,1,1,40.12,8.6c-44.83,209.23-507.91,253.34-527.6,255.11Q1669.13,1718.89,1668.2,1718.89Z" transform="translate(-106.79 -120.87)"/><path class="cls-4" d="M2952.72,3489.11a20.52,20.52,0,0,1-3.1-40.79c1.27-.2,80.78-13.46,158.05-78.51,103.8-87.38,155-222.38,152.29-401.24a20.52,20.52,0,0,1,20.2-20.83h.32a20.53,20.53,0,0,1,20.51,20.2c3.68,240.2-89.69,369-168.67,434.74-86.19,71.74-172.83,85.63-176.48,86.19A20.49,20.49,0,0,1,2952.72,3489.11Z" transform="translate(-106.79 -120.87)"/><path class="cls-4" d="M3133.26,3457.47l16.36-4.69c5.7-1.64,11.35-3.5,17-5.38,5.7-1.73,11.2-4.09,16.87-5.94,5.61-2,11-4.56,16.62-6.59,21.91-9.36,43.15-20.28,62.65-34l7.26-5.25a58.53,58.53,0,0,0,7.09-5.49l13.67-11.72c4.29-4.18,8.26-8.68,12.57-13,2.06-2.21,4.34-4.29,6.26-6.63l5.53-7.23c16.07-18.69,27-41.12,38.34-64.24l.12-.25a3,3,0,0,1,5.64,1.75c-3.79,25.72-10.07,52.3-23.15,76.12l-4.61,9.11c-1.64,3-3.65,5.72-5.47,8.6-3.76,5.67-7.41,11.52-11.55,17l-13.28,15.73c-4.3,5.46-9.68,9.72-14.57,14.59a263.73,263.73,0,0,1-106.49,60.86c-6.55,2-13.26,3.61-20,5a181.42,181.42,0,0,1-21.31,3,20.85,20.85,0,0,1-7.47-40.81Z" transform="translate(-106.79 -120.87)"/><path class="cls-7" d="M1140.69,2715.62l36.7-52.34a151.86,151.86,0,0,1,72.35-55.49l488.6-177.94c8.07-2.9,30.25,101.43,33.07,109.53l-49,128Z" transform="translate(-106.79 -120.87)"/><path class="cls-4" d="M1154.6,2734.07a26.47,26.47,0,0,1-21.6-41.68l28.32-40.38a170.53,170.53,0,0,1,81.7-62.67l488.61-177.94a20.94,20.94,0,0,1,17,1.29c10.78,5.83,16,15,36.89,102.27,1.83,7.66,3.9,16.34,4.48,18.16l2,6.51-2.3,6.77-53.39,139.52L1156.85,2734C1156.1,2734,1155.34,2734.07,1154.6,2734.07Zm10.56-19.15,0,0Zm-16.09-11.25h0Zm580-249.55-472.6,172.12a131.5,131.5,0,0,0-63,48.31l-12.65,18,527.69-43.76,42.29-110.51c-.82-3.28-1.91-7.8-3.44-14.22C1743.67,2508.68,1735.21,2473.34,1729.06,2454.12Z" transform="translate(-106.79 -120.87)"/><path class="cls-7" d="M2090.8,3051.75c-79,57.91-204.24,148.72-207.11,144.14l-109.06-194.33-241.58-430.5c-1.57-2.81,130.06-98.67,205.27-141.2,31.52-17.85,66.46,25,87.11,57.78l152.76,240.89,130.73,206.16C2134.22,2974.41,2126.29,3025.7,2090.8,3051.75Z" transform="translate(-106.79 -120.87)"/><g class="cls-9"><path class="cls-4" d="M2090.8,3051.75c-79,57.91-204.24,148.72-207.11,144.14l-109.06-194.33-61-250.19s123.49,83.28,220.72,16.82a212.15,212.15,0,0,0,43.83-39.66l130.73,206.16C2134.22,2974.41,2126.29,3025.7,2090.8,3051.75Z" transform="translate(-106.79 -120.87)"/></g><path class="cls-4" d="M1884.08,3215.77a19.15,19.15,0,0,1-3.87-.48l-8.41-1.61-5.27-8.21-350.63-624.8c-8.85-16.11,2.11-24.39,26.14-42.54,14.3-10.79,33.32-24.58,53.55-38.82,24.57-17.28,86.71-60.32,133.09-86.55,20-11.35,61.43-18.05,113.38,64.41l283.44,447c30.78,48.31,20.64,111.31-23.11,143.4C1919.82,3201.48,1895.21,3215.77,1884.08,3215.77ZM1558,2575.38l333.48,594.22c20.08-12.94,69-46.58,187.73-133.7,27.12-19.89,32.91-59.72,13.19-90.67l-283.49-447.08c-24.18-38.38-48.08-58.45-60.85-51.21C1685.68,2482.2,1589.85,2550.72,1558,2575.38Z" transform="translate(-106.79 -120.87)"/><path class="cls-7" d="M1877.88,3196.91l-397.27,59.35c-62.77.14-107.83-8.75-143.94-66.6l-18.39-29.47L1134,2865a174.15,174.15,0,0,1-24-61.47c-8.47-48.48,23.66-80.89,68.93-109.34l332.24-121.36a122.52,122.52,0,0,1,144,47.11l34.67,56.54,244.65,399.05C1964.58,3124.57,1934.77,3188.43,1877.88,3196.91Z" transform="translate(-106.79 -120.87)"/><g class="cls-9"><path class="cls-4" d="M1877.88,3196.91l-397.27,59.35c-62.77.14-107.83-8.75-143.94-66.6l-18.39-29.47c88.07,10.74,225.64,4.65,321.3-107.9,91.36-107.35,76.45-266.46,50.26-375.8l244.65,399.05C1964.58,3124.57,1934.77,3188.43,1877.88,3196.91Z" transform="translate(-106.79 -120.87)"/></g><path class="cls-4" d="M1479.25,3275.93c-56.83,0-115.8-6.24-159.26-75.87l-202.66-324.67a194,194,0,0,1-26.65-68.47c-11.23-64.24,35.68-102.88,77.82-129.37l1.76-1.11,334.2-122.07a141.73,141.73,0,0,1,167,54.67l279.74,456.24a99.94,99.94,0,0,1-70.45,151.08l-398.71,59.56h-2.82Zm1.35-19.64h0Zm-292.94-544.4c-47.1,30-64,55.63-58.3,88.26a154.48,154.48,0,0,0,21.28,54.45l202.66,324.67c30.13,48.26,66.11,57.35,125.83,57.39L1875,3177.52a60.67,60.67,0,0,0,42.77-91.72l-279.34-455.61c-26-39-75.74-55.27-120.48-38.94Z" transform="translate(-106.79 -120.87)"/><path class="cls-15" d="M1584.81,2922.18c5.79,11.2,65.49,94.94,65.49,94.94l52.42-27.11c36.1-18.67,41.84-79.3,12.81-135.43s-81.82-86.5-117.92-67.83l-52.42,27.11S1575.37,2903.93,1584.81,2922.18Z" transform="translate(-106.79 -120.87)"/><path class="cls-15" d="M1584.81,2922.18c5.79,11.2,65.49,94.94,65.49,94.94l52.42-27.11c36.1-18.67,41.84-79.3,12.81-135.43s-81.82-86.5-117.92-67.83l-52.42,27.11S1575.37,2903.93,1584.81,2922.18Z" transform="translate(-106.79 -120.87)"/><g class="cls-9"><path class="cls-4" d="M1584.81,2922.18c5.79,11.2,65.49,94.94,65.49,94.94l52.42-27.11c36.1-18.67,41.84-79.3,12.81-135.43s-81.82-86.5-117.92-67.83l-52.42,27.11S1575.37,2903.93,1584.81,2922.18Z" transform="translate(-106.79 -120.87)"/></g><path class="cls-4" d="M1643.92,3043.52,1633.6,3029c-14.2-19.92-61-85.83-67-97.42h0c-9.88-19.1-37.71-101.84-40.85-111.22l-5.59-16.66,68-35.19c23.86-12.34,52.73-10.11,81.26,6.31,25.64,14.75,48.47,39.72,64.3,70.32s23,63.67,20.22,93.11c-3.1,32.77-18,57.61-41.82,70ZM1603,2912.75c3.17,5.93,28.19,42,53.68,78l36.6-18.93c14.9-7.71,18.82-26.73,19.83-37.38,2-21.39-3.75-47.06-15.83-70.41s-29.68-42.88-48.31-53.6c-9.27-5.34-27.06-13.13-42-5.43l-36.76,19C1581.9,2858,1597.61,2902.28,1603,2912.75Z" transform="translate(-106.79 -120.87)"/><ellipse class="cls-15" cx="1579.96" cy="2924.38" rx="73.58" ry="114.41" transform="translate(-1273.57 931.69) rotate(-27.35)"/><path class="cls-4" d="M1609.11,3052.08c-40.7,0-85.6-32-112.73-84.47h0c-34.76-67.21-25.27-138.84,21.6-163.07s110.8,9.42,145.56,76.62,25.27,138.84-21.6,163.07A70.79,70.79,0,0,1,1609.11,3052.08Zm-76.3-103.32c25.43,49.15,68,70.56,90.28,59s29.43-58.63,4-107.78-68-70.55-90.28-59-29.42,58.63-4,107.78Z" transform="translate(-106.79 -120.87)"/><path class="cls-15" d="M1627.1,2900c-25.42-49.13-68-70.54-90.28-59s-29.42,58.63-4,107.78,68,70.56,90.28,59S1652.52,2949.16,1627.1,2900Z" transform="translate(-106.79 -120.87)"/><g class="cls-14"><path class="cls-7" d="M1548.52,2964.47c-25.41-49.15-18.29-96.26,4-107.79,13.82-7.13,35.41-1.6,55.89,15.31-24.34-28.8-54.15-40-71.6-31-22.29,11.53-29.42,58.63-4,107.78,9.68,18.7,21.83,33.35,34.4,43.73A150.59,150.59,0,0,1,1548.52,2964.47Z" transform="translate(-106.79 -120.87)"/></g><g class="cls-9"><path class="cls-4" d="M1645.32,2890.58c-11.24-21.72-26-39.52-42.06-52.18,23.12,52.95,16,107.29-17.87,124.78-22.12,11.45-50.51,4.4-75.86-15.64q2.33,5.34,5.07,10.65c29,56.12,81.82,86.49,117.91,67.82S1674.34,2946.71,1645.32,2890.58Z" transform="translate(-106.79 -120.87)"/></g><path class="cls-7" d="M2603.29,2107s-211.1,339.52-614.17,499c-62.91,24.9-98.17,93.33-76.82,156.7,11.27,33.44,36.9,60.16,90.08,60.07,222-.36,748.67-416.17,753.63-580.29C2760.63,2089.16,2603.29,2107,2603.29,2107Z" transform="translate(-106.79 -120.87)"/><g class="cls-9"><path class="cls-4" d="M2756,2242.52c-5,164.13-531.64,579.91-753.61,580.29-53.23.06-78.83-26.63-90.1-60.06-11-32.72-7-66.79,8.27-95.53a7.94,7.94,0,0,0,.33,1.09c11.27,33.43,36.94,60.18,90.1,60.12,202.49-.32,658.62-346.48,740.84-531.78A176.57,176.57,0,0,1,2756,2242.52Z" transform="translate(-106.79 -120.87)"/></g><path class="cls-4" d="M2002.13,2850.14c-57.55,0-98.65-27.93-115.75-78.68-25.7-76.29,15-160.13,92.68-190.87,389.43-154.11,598.94-484.73,601-488.05l7-11.22,13.15-1.5c3.41-.39,84.44-8.94,138.2,40.56,31.41,28.9,46.52,70.27,44.94,122.94-3.06,101.38-160.06,258.8-306,372.32-145.54,113.23-346.74,234.29-474.95,234.5Zm616.39-716.41c-42.79,63.92-251.18,352-619.34,497.72-50.58,20-77.37,73.85-61,122.54,9.65,28.66,29.37,41.45,63.89,41.45h.23c215.9-.35,722.07-412.6,726.33-553.77,1.08-36-8-63.19-27.11-80.86C2676.12,2137.22,2637.92,2133.8,2618.52,2133.73Z" transform="translate(-106.79 -120.87)"/><path class="cls-4" d="M1611,3257.34a20.49,20.49,0,0,1-17.79-10.27l-150-260.05-62.06-9.6L1202.61,2690a20.51,20.51,0,0,1,34.85-21.65L1406,2939.76l62.87,9.73,159.79,277.09a20.52,20.52,0,0,1-17.75,30.76Z" transform="translate(-106.79 -120.87)"/></svg>